<?xml version="1.0" standalone="no"?>
<!DOCTYPE svg PUBLIC "-//W3C//DTD SVG 20010904//EN"
 "http://www.w3.org/TR/2001/REC-SVG-20010904/DTD/svg10.dtd">
<svg version="1.0" xmlns="http://www.w3.org/2000/svg"
 width="285.000000pt" height="79.000000pt" viewBox="0 0 285.000000 79.000000"
 preserveAspectRatio="xMidYMid meet">

<g transform="translate(0.000000,79.000000) scale(0.100000,-0.100000)"
fill="#000000" stroke="none">
<path d="M2335 763 c-77 -10 -194 -37 -231 -52 -96 -43 -156 -129 -175 -253
-22 -140 22 -279 109 -345 98 -74 317 -111 592 -99 85 4 170 9 188 12 32 6 32
6 32 66 l0 60 -67 -8 c-103 -13 -332 -11 -375 4 -97 34 -153 109 -165 222 -22
212 117 314 407 296 58 -3 124 -9 148 -12 l43 -7 -3 54 -3 54 -55 7 c-59 6
-395 8 -445 1z"/>
<path d="M2 393 l3 -358 73 -3 72 -3 0 248 1 248 73 -80 c40 -44 131 -145 202
-225 72 -79 145 -153 164 -164 30 -18 53 -21 180 -21 l145 0 3 358 2 358 -72
-3 -73 -3 -5 -250 -5 -250 -21 28 c-12 15 -60 69 -106 119 -352 386 -312 358
-506 358 l-132 0 2 -357z"/>
<path d="M1032 453 c3 -290 4 -299 26 -335 14 -22 41 -46 70 -60 46 -22 55
-23 376 -26 181 -2 339 -1 352 2 22 6 24 12 24 61 l0 55 -234 0 c-131 0 -246
4 -261 10 -35 13 -55 65 -55 140 l0 60 245 0 245 0 0 55 0 55 -245 0 -245 0 0
85 0 85 270 0 270 0 0 55 0 55 -421 0 -420 0 3 -297z"/>
</g>
</svg>
